<svg xmlns="http://www.w3.org/2000/svg" viewBox="0 0 512 512">
  <defs>
    <radialGradient id="bg" cx="35%" cy="30%" r="80%">
      <stop offset="0%" stop-color="#2a1140"/>
      <stop offset="100%" stop-color="#0a0416"/>
    </radialGradient>
    <radialGradient id="ball" cx="38%" cy="34%" r="65%">
      <stop offset="0%" stop-color="#ffffff"/>
      <stop offset="45%" stop-color="#ff8fe0"/>
      <stop offset="100%" stop-color="#3a1450"/>
    </radialGradient>
  </defs>

  <rect width="512" height="512" rx="96" fill="url(#bg)"/>

  <g opacity="0.9">
    <path d="M256 60 L266 210 L246 210 Z" fill="#ffd23f"/>
    <path d="M120 150 L235 235 L222 250 Z" fill="#00e5ff"/>
    <path d="M392 150 L277 235 L290 250 Z" fill="#ff2ec4"/>
  </g>

  <circle cx="256" cy="290" r="128" fill="url(#ball)"/>
  <g stroke="#1a0b2e" stroke-width="4" opacity="0.55">
    <path d="M128 290 H384" fill="none"/>
    <path d="M256 162 V418" fill="none"/>
    <path d="M155 200 L357 380" fill="none"/>
    <path d="M357 200 L155 380" fill="none"/>
    <circle cx="256" cy="290" r="90" fill="none"/>
    <circle cx="256" cy="290" r="45" fill="none"/>
  </g>

  <g fill="#ffffff">
    <path d="M410 340 l6 16 16 6 -16 6 -6 16 -6 -16 -16 -6 16 -6 Z"/>
    <path d="M96 210 l5 13 13 5 -13 5 -5 13 -5 -13 -13 -5 13 -5 Z"/>
    <path d="M420 130 l4 10 10 4 -10 4 -4 10 -4 -10 -10 -4 10 -4 Z"/>
  </g>
</svg>
